<?xml version="1.0" encoding="UTF-8" standalone="no"?>
<svg
   xmlns:dc="http://purl.org/dc/elements/1.1/"
   xmlns:cc="http://creativecommons.org/ns#"
   xmlns:rdf="http://www.w3.org/1999/02/22-rdf-syntax-ns#"
   xmlns:svg="http://www.w3.org/2000/svg"
   xmlns="http://www.w3.org/2000/svg"
   xmlns:sodipodi="http://sodipodi.sourceforge.net/DTD/sodipodi-0.dtd"
   xmlns:inkscape="http://www.inkscape.org/namespaces/inkscape"
   inkscape:version="1.0 (6e3e5246a0, 2020-05-07)"
   sodipodi:docname="eca-inactive.svg"
   id="svg10"
   version="1.1"
   fill="none"
   viewBox="0 0 18 24"
   height="24"
   width="18">
  <metadata
     id="metadata16">
    <rdf:RDF>
      <cc:Work
         rdf:about="">
        <dc:format>image/svg+xml</dc:format>
        <dc:type
           rdf:resource="http://purl.org/dc/dcmitype/StillImage" />
        <dc:title></dc:title>
      </cc:Work>
    </rdf:RDF>
  </metadata>
  <defs
     id="defs14" />
  <sodipodi:namedview
     inkscape:current-layer="svg10"
     inkscape:window-maximized="0"
     inkscape:window-y="27"
     inkscape:window-x="55"
     inkscape:cy="12"
     inkscape:cx="9"
     inkscape:zoom="38.833333"
     showgrid="false"
     id="namedview12"
     inkscape:window-height="480"
     inkscape:window-width="732"
     inkscape:pageshadow="2"
     inkscape:pageopacity="0"
     guidetolerance="10"
     gridtolerance="10"
     objecttolerance="10"
     borderopacity="1"
     bordercolor="#666666"
     pagecolor="#ffffff" />
  <path
     style="fill:#808080"
     id="path2"
     fill="#1C5F0B"
     d="M8.0625 23.5083C8.48438 24.1639 9.46875 24.1639 9.89062 23.5083C16.7344 13.6741 18 12.6439 18 8.99122C18 4.02732 13.9688 0 9 0C3.98438 0 0 4.02732 0 8.99122C0 12.6439 1.21875 13.6741 8.0625 23.5083Z" />
  <path
     id="path4"
     fill="white"
     d="M4.5654 6.86756V7.36916H5.8194V8.32106H4.5654V8.89106H5.9904V9.89996H3.3V5.86436H5.9904V6.86756H4.5654Z" />
  <path
     id="path6"
     fill="white"
     d="M8.34829 5.82446C8.69789 5.82446 9.00949 5.89096 9.28309 6.02396C9.56049 6.15316 9.78469 6.33746 9.95569 6.57686C10.1305 6.81626 10.2464 7.09556 10.3034 7.41476H8.96959C8.90879 7.28176 8.82139 7.17916 8.70739 7.10696C8.59719 7.03096 8.46989 6.99296 8.32549 6.99296C8.11269 6.99296 7.94359 7.07276 7.81819 7.23236C7.69659 7.39196 7.63579 7.60666 7.63579 7.87646C7.63579 8.14626 7.69659 8.36096 7.81819 8.52056C7.94359 8.68016 8.11269 8.75996 8.32549 8.75996C8.46989 8.75996 8.59719 8.72386 8.70739 8.65166C8.82139 8.57566 8.90879 8.47116 8.96959 8.33816H10.3034C10.2464 8.65736 10.1305 8.93666 9.95569 9.17606C9.78469 9.41546 9.56049 9.60166 9.28309 9.73466C9.00949 9.86386 8.69789 9.92846 8.34829 9.92846C7.94169 9.92846 7.58829 9.84296 7.28809 9.67196C6.98789 9.49716 6.75609 9.25396 6.59269 8.94236C6.43309 8.63076 6.35329 8.27546 6.35329 7.87646C6.35329 7.47746 6.43309 7.12216 6.59269 6.81056C6.75609 6.49896 6.98789 6.25766 7.28809 6.08666C7.58829 5.91186 7.94169 5.82446 8.34829 5.82446Z" />
  <path
     id="path8"
     fill="white"
     d="M13.3468 9.29006H12.0016L11.8021 9.89996H10.474L11.9503 5.86436H13.4095L14.8801 9.89996H13.5463L13.3468 9.29006ZM13.039 8.33816L12.6742 7.21526L12.3094 8.33816H13.039Z" />
</svg>
