<?xml version="1.0" encoding="UTF-8" standalone="no"?>
<svg
   xmlns:dc="http://purl.org/dc/elements/1.1/"
   xmlns:cc="http://creativecommons.org/ns#"
   xmlns:rdf="http://www.w3.org/1999/02/22-rdf-syntax-ns#"
   xmlns:svg="http://www.w3.org/2000/svg"
   xmlns="http://www.w3.org/2000/svg"
   xmlns:sodipodi="http://sodipodi.sourceforge.net/DTD/sodipodi-0.dtd"
   xmlns:inkscape="http://www.inkscape.org/namespaces/inkscape"
   inkscape:version="1.0 (6e3e5246a0, 2020-05-07)"
   sodipodi:docname="noon-inactive.svg"
   id="svg6"
   version="1.1"
   fill="none"
   viewBox="0 0 18 24"
   height="24"
   width="18">
  <metadata
     id="metadata12">
    <rdf:RDF>
      <cc:Work
         rdf:about="">
        <dc:format>image/svg+xml</dc:format>
        <dc:type
           rdf:resource="http://purl.org/dc/dcmitype/StillImage" />
        <dc:title></dc:title>
      </cc:Work>
    </rdf:RDF>
  </metadata>
  <defs
     id="defs10" />
  <sodipodi:namedview
     inkscape:current-layer="svg6"
     inkscape:window-maximized="0"
     inkscape:window-y="27"
     inkscape:window-x="55"
     inkscape:cy="12"
     inkscape:cx="9"
     inkscape:zoom="38.833333"
     showgrid="false"
     id="namedview8"
     inkscape:window-height="480"
     inkscape:window-width="732"
     inkscape:pageshadow="2"
     inkscape:pageopacity="0"
     guidetolerance="10"
     gridtolerance="10"
     objecttolerance="10"
     borderopacity="1"
     bordercolor="#666666"
     pagecolor="#ffffff" />
  <path
     style="fill:#808080"
     id="path2"
     fill="#1C5F0B"
     d="M8.0625 23.5083C8.48438 24.1639 9.46875 24.1639 9.89062 23.5083C16.7344 13.6741 18 12.6439 18 8.99122C18 4.02732 13.9688 0 9 0C3.98438 0 0 4.02732 0 8.99122C0 12.6439 1.21875 13.6741 8.0625 23.5083Z" />
  <path
     id="path4"
     fill="white"
     d="M9.01231 6.37499C8.14278 6.37499 7.43731 7.09686 7.43731 7.94999C7.43731 8.81952 8.14278 9.52499 9.01231 9.52499C9.86543 9.52499 10.5873 8.81952 10.5873 7.94999C10.5873 7.09686 9.86543 6.37499 9.01231 6.37499ZM13.0482 7.70389L11.4897 6.9328L12.0475 5.27577C12.1131 5.06249 11.8998 4.84921 11.6865 4.91483L10.0295 5.47264L9.2584 3.91405C9.15996 3.70077 8.84825 3.70077 8.74981 3.91405L7.97871 5.47264L6.32168 4.91483C6.1084 4.84921 5.89512 5.06249 5.96075 5.27577L6.51856 6.9328L4.95996 7.70389C4.74668 7.80233 4.74668 8.11405 4.95996 8.21249L6.51856 8.98358L5.96075 10.6406C5.89512 10.8539 6.1084 11.0672 6.32168 11.0016L7.97871 10.4437L8.74981 12.0023C8.84825 12.2156 9.15996 12.2156 9.2584 12.0023L10.0295 10.4437L11.6865 11.0016C11.8998 11.0672 12.1131 10.8539 12.0475 10.6406L11.4897 8.98358L13.0482 8.21249C13.2615 8.11405 13.2615 7.80233 13.0482 7.70389ZM10.4889 9.44296C9.66856 10.2633 8.33965 10.2633 7.51934 9.44296C6.69903 8.62264 6.69903 7.29374 7.51934 6.47343C8.33965 5.65311 9.66856 5.65311 10.4889 6.47343C11.3092 7.29374 11.3092 8.62264 10.4889 9.44296Z" />
</svg>
