<svg width="60" height="80" viewBox="0 0 60 80" fill="none" xmlns="http://www.w3.org/2000/svg">
<path d="M26.875 78.361C28.2812 80.5463 31.5625 80.5463 32.9687 78.361C55.7812 45.5805 60 42.1463 60 29.9707C60 13.4244 46.5625 0 30 0C13.2812 0 0 13.4244 0 29.9707C0 42.1463 4.0625 45.5805 26.875 78.361Z" fill="#1C5F0B"/>
<path d="M44.5 11H41.5C41.125 11 40.75 11.375 40.75 11.8125L41 17C38.1875 13.625 33.9375 11.5 29.25 11.5C20.6875 11.5 13.6875 18.5 13.75 27.0625C13.75 35.625 20.6875 42.5 29.25 42.5C33.1875 42.5 36.875 41 39.625 38.5625C39.9375 38.25 39.9375 37.75 39.625 37.4375L37.5 35.3125C37.25 35.0625 36.8125 35 36.5 35.3125C34.5625 37 32 38 29.25 38C23.125 38 18.25 33.125 18.25 27C18.25 20.9375 23.125 16 29.25 16C33 16 36.375 17.9375 38.375 20.875L32 20.5625C31.5625 20.5625 31.25 20.9375 31.25 21.3125V24.3125C31.25 24.6875 31.5625 25.0625 32 25.0625H44.5C44.875 25.0625 45.25 24.6875 45.25 24.3125V11.75C45.25 11.375 44.875 11 44.5 11Z" fill="white"/>
</svg>
