<svg width="18" height="24" viewBox="0 0 18 24" fill="none" xmlns="http://www.w3.org/2000/svg">
<path d="M8.0625 23.5083C8.48438 24.1639 9.46875 24.1639 9.89062 23.5083C16.7344 13.6741 18 12.6439 18 8.99122C18 4.02732 13.9688 0 9 0C3.98438 0 0 4.02732 0 8.99122C0 12.6439 1.21875 13.6741 8.0625 23.5083Z" fill="#FF9A03"/>
<path d="M4.39208 9.35885H4.93349C5.29443 11.0487 7.16474 11.9838 8.92021 11.9838C10.6593 11.9838 12.5296 11.0487 12.8905 9.35885H13.4319C13.596 9.35885 13.6944 9.16197 13.5632 9.03072L12.464 7.93151C12.3819 7.84947 12.2671 7.84947 12.1851 7.93151L11.0858 9.03072C10.9546 9.16197 11.053 9.35885 11.2171 9.35885H11.8077C11.4632 10.2612 10.4132 10.7862 9.4288 10.9174V7.78385H10.2819C10.3968 7.78385 10.4788 7.70182 10.4788 7.58697V6.93072C10.4788 6.83229 10.3968 6.73385 10.2819 6.73385H9.4288V6.65182C10.0522 6.43854 10.4788 5.84791 10.4788 5.17526C10.4952 4.30572 9.78974 3.60026 8.93661 3.60026C8.05068 3.58385 7.34521 4.28932 7.34521 5.15885C7.34521 5.84791 7.77177 6.43854 8.39521 6.65182V6.73385H7.54208C7.42724 6.73385 7.34521 6.83229 7.34521 6.93072V7.58697C7.34521 7.70182 7.42724 7.78385 7.54208 7.78385H8.39521V10.9174C7.42724 10.7862 6.36083 10.2612 6.0163 9.35885H6.60693C6.77099 9.35885 6.86943 9.16197 6.73818 9.03072L5.63896 7.93151C5.55693 7.84947 5.44208 7.84947 5.36005 7.93151L4.26083 9.03072C4.12958 9.16197 4.22802 9.35885 4.39208 9.35885ZM8.92021 4.63385C9.19911 4.63385 9.44521 4.87994 9.44521 5.15885C9.44521 5.45416 9.19911 5.68385 8.92021 5.68385C8.6249 5.68385 8.39521 5.45416 8.39521 5.15885C8.39521 4.87994 8.6249 4.63385 8.92021 4.63385Z" fill="white"/>
</svg>
