<svg width="18" height="24" viewBox="0 0 18 24" fill="none" xmlns="http://www.w3.org/2000/svg">
<path d="M8.0625 23.5083C8.48438 24.1639 9.46875 24.1639 9.89062 23.5083C16.7344 13.6741 18 12.6439 18 8.99122C18 4.02732 13.9688 0 9 0C3.98438 0 0 4.02732 0 8.99122C0 12.6439 1.21875 13.6741 8.0625 23.5083Z" fill="#FF9A03"/>
<path d="M10.3945 5.37424C9.50858 5.37424 8.78671 4.80002 7.68749 4.80002C7.27733 4.80002 6.91639 4.88205 6.57186 5.0133C6.60468 4.91486 6.63749 4.76721 6.63749 4.68517C6.63749 4.66877 6.62108 4.63596 6.62108 4.61955C6.60468 4.16017 6.21093 3.78283 5.75155 3.76642C5.22655 3.73361 4.79999 4.16017 4.79999 4.66877C4.79999 4.99689 4.94764 5.25939 5.19374 5.42346V11.7563C5.19374 11.986 5.3578 12.15 5.58749 12.15H5.84999C6.06327 12.15 6.24374 11.986 6.24374 11.7563V10.2141C6.70311 10.0172 7.27733 9.85314 8.11405 9.85314C8.99999 9.85314 9.72186 10.4274 10.8211 10.4274C11.6086 10.4274 12.2484 10.1485 12.8391 9.75471C12.9703 9.65627 13.0687 9.49221 13.0687 9.32814V5.32502C13.0687 4.94767 12.6586 4.70158 12.3141 4.84924C11.7562 5.11174 11.0672 5.37424 10.3945 5.37424Z" fill="white"/>
</svg>
