<svg width="18" height="24" viewBox="0 0 18 24" fill="none" xmlns="http://www.w3.org/2000/svg">
<path d="M8.0625 23.5083C8.48438 24.1639 9.46875 24.1639 9.89062 23.5083C16.7344 13.6741 18 12.6439 18 8.99122C18 4.02732 13.9688 0 9 0C3.98438 0 0 4.02732 0 8.99122C0 12.6439 1.21875 13.6741 8.0625 23.5083Z" fill="#FF9A03"/>
<path d="M11.7375 9.71951L12.8859 8.57107C13.1648 8.29216 13.05 7.81638 12.6726 7.70154L12 7.48826V5.17498C12 4.89607 11.7539 4.64998 11.475 4.64998H10.425V3.99373C10.425 3.78044 10.2445 3.59998 10.0312 3.59998H7.66873C7.43904 3.59998 7.27498 3.78044 7.27498 3.99373V4.64998H6.22498C5.92966 4.64998 5.69998 4.89607 5.69998 5.17498V7.48826L5.01091 7.70154C4.63357 7.81638 4.51873 8.29216 4.79763 8.57107L5.94607 9.71951C5.65076 10.4414 4.99451 10.95 3.99373 10.95C3.76404 10.95 3.59998 11.1304 3.59998 11.3437V11.6062C3.59998 11.8359 3.76404 12 3.99373 12C4.99451 12 5.74919 11.6719 6.33982 11.032C6.56951 11.6062 7.14373 12 7.79998 12H9.89998C10.5398 12 11.114 11.6062 11.3437 11.032C11.9344 11.6719 12.689 12 13.7062 12C13.9195 12 14.1 11.8359 14.1 11.6062V11.3437C14.1 11.1304 13.9195 10.95 13.7062 10.95C12.7054 10.95 12.0328 10.4414 11.7375 9.71951ZM6.74998 5.69998H10.95V7.14373L8.99763 6.52029C8.96482 6.50388 8.88279 6.50388 8.84998 6.50388C8.80076 6.50388 8.71873 6.50388 8.68591 6.52029L6.74998 7.14373V5.69998Z" fill="white"/>
</svg>
