<?xml version="1.0" encoding="UTF-8" standalone="no"?>
<svg
   xmlns:dc="http://purl.org/dc/elements/1.1/"
   xmlns:cc="http://creativecommons.org/ns#"
   xmlns:rdf="http://www.w3.org/1999/02/22-rdf-syntax-ns#"
   xmlns:svg="http://www.w3.org/2000/svg"
   xmlns="http://www.w3.org/2000/svg"
   xmlns:sodipodi="http://sodipodi.sourceforge.net/DTD/sodipodi-0.dtd"
   xmlns:inkscape="http://www.inkscape.org/namespaces/inkscape"
   inkscape:version="1.0 (6e3e5246a0, 2020-05-07)"
   sodipodi:docname="Arrow point_no2 (1).svg"
   id="svg24"
   xml:space="preserve"
   style="enable-background:new 0 0 534.52 534.52;"
   viewBox="0 0 534.52 534.52"
   y="0px"
   x="0px"
   version="1.1"><metadata
   id="metadata30"><rdf:RDF><cc:Work
       rdf:about=""><dc:format>image/svg+xml</dc:format><dc:type
         rdf:resource="http://purl.org/dc/dcmitype/StillImage" /></cc:Work></rdf:RDF></metadata><defs
   id="defs28" /><sodipodi:namedview
   inkscape:current-layer="svg24"
   inkscape:window-maximized="0"
   inkscape:window-y="929"
   inkscape:window-x="1164"
   inkscape:cy="267.26001"
   inkscape:cx="267.26001"
   inkscape:zoom="1.7436204"
   showgrid="false"
   id="namedview26"
   inkscape:window-height="1201"
   inkscape:window-width="1510"
   inkscape:pageshadow="2"
   inkscape:pageopacity="0"
   guidetolerance="10"
   gridtolerance="10"
   objecttolerance="10"
   borderopacity="1"
   bordercolor="#666666"
   pagecolor="#ffffff" />
<style
   id="style2"
   type="text/css">
	.st0{display:none;}
	.st1{display:inline;fill:#AADFF3;}
	.st2{fill:none;stroke:#0B4160;stroke-width:55;stroke-opacity:0.18;}
	.st3{fill:#E2E5EC;}
	.st4{opacity:0.2;fill:#FFFFFF;}
	.st5{fill:#0B4160;}
	.st6{opacity:0.6;fill:none;stroke:#BA2025;stroke-width:61;stroke-opacity:0.07;}
	.st7{fill:#BA2025;}
	.st8{fill:none;stroke:#BA2025;stroke-width:70;stroke-opacity:0.41;}
	.st9{fill:#FFFFFF;}
</style>
<g
   class="st0"
   id="Layer_1">
	<rect
   id="rect4"
   height="599"
   width="590"
   class="st1"
   y="-24.28"
   x="-26.15" />
	<circle
   id="circle6"
   r="238.49"
   cy="268.13"
   cx="266.83"
   class="st2" />
	<circle
   id="circle8"
   r="141.74"
   cy="268.13"
   cx="266.83"
   class="st3" />
	<circle
   id="circle10"
   r="211"
   cy="268.13"
   cx="266.83"
   class="st4" />
	<path
   id="path12"
   d="M341.96,256.15c5.32,2.4,5.61,9.85,0.49,12.67l-138.39,76.09c-6.32,3.48-13.56-3.81-10.22-10.21   c10.99-21.05,25.12-51.42,24.5-67.37c-0.62-15.95-17.09-45.13-29.69-65.25c-3.83-6.12,2.82-13.95,9.39-10.98L341.96,256.15z"
   class="st5" />
</g>
<g
   transform="rotate(-90,266.84703,267.41795)"
   id="Layer_2">
	
		<circle
   r="235.44"
   id="ellipse15"
   cy="267.42001"
   cx="266.85001"
   class="st6"
   transform="matrix(0.7071,-0.7071,0.7071,0.7071,-110.9353,267.0149)" />
	
		<circle
   r="144.88"
   id="ellipse17"
   cy="267.42001"
   cx="266.85001"
   class="st7"
   transform="matrix(0.7071,-0.7071,0.7071,0.7071,-110.9353,267.0149)" />
	<circle
   id="circle19"
   r="176.41"
   cy="267.42001"
   cx="266.85001"
   class="st8" />
	<path
   id="path21"
   d="m 342.06,256.53 c 5.32,2.46 5.56,9.94 0.4,12.72 l -139.51,75.29 c -6.38,3.44 -13.58,-3.93 -10.18,-10.33 11.2,-21.04 25.62,-51.42 25.12,-67.43 -0.5,-16.02 -16.8,-45.44 -29.28,-65.74 -3.8,-6.17 2.93,-13.98 9.51,-10.95 z"
   class="st9" />
</g>
</svg>
