<svg width="18" height="24" viewBox="0 0 18 24" fill="none" xmlns="http://www.w3.org/2000/svg">
<path d="M8.0625 23.5083C8.48438 24.1639 9.46875 24.1639 9.89062 23.5083C16.7344 13.6741 18 12.6439 18 8.99122C18 4.02732 13.9688 0 9 0C3.98438 0 0 4.02732 0 8.99122C0 12.6439 1.21875 13.6741 8.0625 23.5083Z" fill="#FF9A03"/>
<path d="M4.56539 6.86756V7.36916H5.81939V8.32106H4.56539V8.89106H5.99039V9.89996H3.29999V5.86436H5.99039V6.86756H4.56539Z" fill="white"/>
<path d="M8.34827 5.82446C8.69787 5.82446 9.00947 5.89096 9.28307 6.02396C9.56047 6.15316 9.78467 6.33746 9.95567 6.57686C10.1305 6.81626 10.2464 7.09556 10.3034 7.41476H8.96957C8.90877 7.28176 8.82137 7.17916 8.70737 7.10696C8.59717 7.03096 8.46987 6.99296 8.32547 6.99296C8.11267 6.99296 7.94357 7.07276 7.81817 7.23236C7.69657 7.39196 7.63577 7.60666 7.63577 7.87646C7.63577 8.14626 7.69657 8.36096 7.81817 8.52056C7.94357 8.68016 8.11267 8.75996 8.32547 8.75996C8.46987 8.75996 8.59717 8.72386 8.70737 8.65166C8.82137 8.57566 8.90877 8.47116 8.96957 8.33816H10.3034C10.2464 8.65736 10.1305 8.93666 9.95567 9.17606C9.78467 9.41546 9.56047 9.60166 9.28307 9.73466C9.00947 9.86386 8.69787 9.92846 8.34827 9.92846C7.94167 9.92846 7.58827 9.84296 7.28807 9.67196C6.98787 9.49716 6.75607 9.25396 6.59267 8.94236C6.43307 8.63076 6.35327 8.27546 6.35327 7.87646C6.35327 7.47746 6.43307 7.12216 6.59267 6.81056C6.75607 6.49896 6.98787 6.25766 7.28807 6.08666C7.58827 5.91186 7.94167 5.82446 8.34827 5.82446Z" fill="white"/>
<path d="M13.3468 9.29006H12.0016L11.8021 9.89996H10.474L11.9503 5.86436H13.4095L14.8801 9.89996H13.5463L13.3468 9.29006ZM13.039 8.33816L12.6742 7.21526L12.3094 8.33816H13.039Z" fill="white"/>
</svg>
