<svg width="18" height="24" viewBox="0 0 18 24" fill="none" xmlns="http://www.w3.org/2000/svg">
<path d="M8.0625 23.5083C8.48438 24.1639 9.46875 24.1639 9.89062 23.5083C16.7344 13.6741 18 12.6439 18 8.99122C18 4.02732 13.9688 0 9 0C3.98438 0 0 4.02732 0 8.99122C0 12.6439 1.21875 13.6741 8.0625 23.5083Z" fill="#B02E2E"/>
<path d="M9.01229 6.37499C8.14276 6.37499 7.43729 7.09686 7.43729 7.94999C7.43729 8.81952 8.14276 9.52499 9.01229 9.52499C9.86542 9.52499 10.5873 8.81952 10.5873 7.94999C10.5873 7.09686 9.86542 6.37499 9.01229 6.37499ZM13.0482 7.70389L11.4896 6.9328L12.0474 5.27577C12.1131 5.06249 11.8998 4.84921 11.6865 4.91483L10.0295 5.47264L9.25839 3.91405C9.15995 3.70077 8.84823 3.70077 8.74979 3.91405L7.9787 5.47264L6.32167 4.91483C6.10839 4.84921 5.89511 5.06249 5.96073 5.27577L6.51854 6.9328L4.95995 7.70389C4.74667 7.80233 4.74667 8.11405 4.95995 8.21249L6.51854 8.98358L5.96073 10.6406C5.89511 10.8539 6.10839 11.0672 6.32167 11.0016L7.9787 10.4437L8.74979 12.0023C8.84823 12.2156 9.15995 12.2156 9.25839 12.0023L10.0295 10.4437L11.6865 11.0016C11.8998 11.0672 12.1131 10.8539 12.0474 10.6406L11.4896 8.98358L13.0482 8.21249C13.2615 8.11405 13.2615 7.80233 13.0482 7.70389ZM10.4889 9.44296C9.66854 10.2633 8.33964 10.2633 7.51932 9.44296C6.69901 8.62264 6.69901 7.29374 7.51932 6.47343C8.33964 5.65311 9.66854 5.65311 10.4889 6.47343C11.3092 7.29374 11.3092 8.62264 10.4889 9.44296Z" fill="white"/>
</svg>
