<?xml version="1.0" encoding="UTF-8" standalone="no"?>
<svg
   xmlns:dc="http://purl.org/dc/elements/1.1/"
   xmlns:cc="http://creativecommons.org/ns#"
   xmlns:rdf="http://www.w3.org/1999/02/22-rdf-syntax-ns#"
   xmlns:svg="http://www.w3.org/2000/svg"
   xmlns="http://www.w3.org/2000/svg"
   xmlns:sodipodi="http://sodipodi.sourceforge.net/DTD/sodipodi-0.dtd"
   xmlns:inkscape="http://www.inkscape.org/namespaces/inkscape"
   inkscape:version="1.0 (6e3e5246a0, 2020-05-07)"
   sodipodi:docname="resumption-inactive.svg"
   id="svg6"
   version="1.1"
   fill="none"
   viewBox="0 0 18 24"
   height="24"
   width="18">
  <metadata
     id="metadata12">
    <rdf:RDF>
      <cc:Work
         rdf:about="">
        <dc:format>image/svg+xml</dc:format>
        <dc:type
           rdf:resource="http://purl.org/dc/dcmitype/StillImage" />
        <dc:title></dc:title>
      </cc:Work>
    </rdf:RDF>
  </metadata>
  <defs
     id="defs10" />
  <sodipodi:namedview
     inkscape:current-layer="svg6"
     inkscape:window-maximized="0"
     inkscape:window-y="27"
     inkscape:window-x="55"
     inkscape:cy="12"
     inkscape:cx="9"
     inkscape:zoom="38.833333"
     showgrid="false"
     id="namedview8"
     inkscape:window-height="480"
     inkscape:window-width="732"
     inkscape:pageshadow="2"
     inkscape:pageopacity="0"
     guidetolerance="10"
     gridtolerance="10"
     objecttolerance="10"
     borderopacity="1"
     bordercolor="#666666"
     pagecolor="#ffffff" />
  <path
     style="fill:#808080"
     id="path2"
     fill="#FF9A03"
     d="M8.0625 23.5083C8.48438 24.1639 9.46875 24.1639 9.89062 23.5083C16.7344 13.6741 18 12.6439 18 8.99122C18 4.02732 13.9688 0 9 0C3.98438 0 0 4.02732 0 8.99122C0 12.6439 1.21875 13.6741 8.0625 23.5083Z" />
  <path
     id="path4"
     fill="white"
     d="M12.7857 4H11.9286C11.8214 4 11.7143 4.10714 11.7143 4.23214L11.7857 5.71429C10.9822 4.75 9.7679 4.14286 8.42863 4.14286C5.98224 4.14286 3.98226 6.14286 4.00012 8.58929C4.00012 11.0357 5.98224 13 8.42863 13C9.55362 13 10.6072 12.5714 11.3929 11.875C11.4822 11.7857 11.4822 11.6429 11.3929 11.5536L10.7857 10.9464C10.7143 10.875 10.5893 10.8571 10.5 10.9464C9.94647 11.4286 9.21434 11.7143 8.42863 11.7143C6.67865 11.7143 5.28582 10.3214 5.28582 8.57143C5.28582 6.83929 6.67865 5.42857 8.42863 5.42857C9.50005 5.42857 10.4643 5.98214 11.0357 6.82143L9.21434 6.73214C9.08934 6.73214 9.00005 6.83929 9.00005 6.94643V7.80357C9.00005 7.91071 9.08934 8.01786 9.21434 8.01786H12.7857C12.8929 8.01786 13 7.91071 13 7.80357V4.21429C13 4.10714 12.8929 4 12.7857 4Z" />
</svg>
